<svg width="250" height="250" viewBox="0 0 250 250" fill="none" xmlns="http://www.w3.org/2000/svg">
<path fill-rule="evenodd" clip-rule="evenodd" d="M184.842 89.5178C188.508 93.3601 188.364 99.4466 184.522 103.112L113.969 170.42C110.252 173.966 104.403 173.964 100.689 170.414L65.4723 136.76C61.633 133.092 61.4949 127.005 65.1638 123.166C68.8327 119.326 74.9193 119.188 78.7585 122.857L107.337 150.168L171.247 89.1978C175.09 85.5321 181.176 85.6754 184.842 89.5178Z" fill="#7C7C8A"/>
<path fill-rule="evenodd" clip-rule="evenodd" d="M125 19.2308C66.5853 19.2308 19.2308 66.5853 19.2308 125C19.2308 183.415 66.5853 230.769 125 230.769C183.415 230.769 230.769 183.415 230.769 125C230.769 66.5853 183.415 19.2308 125 19.2308ZM0 125C0 55.9644 55.9644 0 125 0C194.036 0 250 55.9644 250 125C250 194.036 194.036 250 125 250C55.9644 250 0 194.036 0 125Z" fill="#7C7C8A"/>
</svg>
