<svg width="161" height="26" viewBox="0 0 161 26" fill="none" xmlns="http://www.w3.org/2000/svg">
<path d="M12.6935 0.5L23.3513 6.65327V18.9598L12.6935 25.1131L2.03573 18.9598V6.65327L12.6935 0.5Z" fill="#065E7C"/>
<path d="M37.9497 20.5H34.953V8.32721C34.953 7.47987 35.1184 6.76686 35.449 6.18819C35.7866 5.60263 36.2585 5.16174 36.8647 4.86551C37.4778 4.5624 38.2046 4.41084 39.0451 4.41084C39.3206 4.41084 39.5858 4.43151 39.8407 4.47284C40.0956 4.50729 40.3436 4.55206 40.5847 4.60718L40.5537 6.84953C40.4229 6.81509 40.2851 6.79098 40.1404 6.7772C39.9957 6.76342 39.827 6.75653 39.6341 6.75653C39.2758 6.75653 38.9693 6.81853 38.7144 6.94253C38.4664 7.05964 38.2769 7.23531 38.1461 7.46954C38.0152 7.70376 37.9497 7.98965 37.9497 8.32721V20.5ZM40.1817 9.31922V11.4272H33.2893V9.31922H40.1817ZM41.2667 15.0233V14.8063C41.2667 13.9865 41.3839 13.2322 41.6181 12.5433C41.8523 11.8475 42.1933 11.2447 42.6411 10.7349C43.0889 10.2251 43.64 9.82901 44.2944 9.54656C44.9489 9.25722 45.6998 9.11255 46.5471 9.11255C47.3945 9.11255 48.1488 9.25722 48.8102 9.54656C49.4715 9.82901 50.0261 10.2251 50.4738 10.7349C50.9285 11.2447 51.273 11.8475 51.5072 12.5433C51.7414 13.2322 51.8585 13.9865 51.8585 14.8063V15.0233C51.8585 15.8362 51.7414 16.5905 51.5072 17.2863C51.273 17.9752 50.9285 18.578 50.4738 19.0947C50.0261 19.6044 49.4749 20.0006 48.8205 20.283C48.166 20.5654 47.4151 20.7067 46.5678 20.7067C45.7205 20.7067 44.9661 20.5654 44.3048 20.283C43.6503 20.0006 43.0958 19.6044 42.6411 19.0947C42.1933 18.578 41.8523 17.9752 41.6181 17.2863C41.3839 16.5905 41.2667 15.8362 41.2667 15.0233ZM44.2428 14.8063V15.0233C44.2428 15.4917 44.2841 15.9292 44.3668 16.3356C44.4494 16.7421 44.5803 17.1003 44.7594 17.4103C44.9455 17.7134 45.1866 17.9511 45.4828 18.1233C45.779 18.2955 46.1407 18.3816 46.5678 18.3816C46.9811 18.3816 47.3359 18.2955 47.6321 18.1233C47.9284 17.9511 48.166 17.7134 48.3452 17.4103C48.5243 17.1003 48.6552 16.7421 48.7378 16.3356C48.8274 15.9292 48.8722 15.4917 48.8722 15.0233V14.8063C48.8722 14.3516 48.8274 13.9245 48.7378 13.5249C48.6552 13.1185 48.5208 12.7603 48.3348 12.4503C48.1557 12.1334 47.918 11.8854 47.6218 11.7062C47.3256 11.5271 46.9674 11.4376 46.5471 11.4376C46.1269 11.4376 45.7687 11.5271 45.4725 11.7062C45.1831 11.8854 44.9455 12.1334 44.7594 12.4503C44.5803 12.7603 44.4494 13.1185 44.3668 13.5249C44.2841 13.9245 44.2428 14.3516 44.2428 14.8063ZM53.2122 15.0233V14.8063C53.2122 13.9865 53.3293 13.2322 53.5635 12.5433C53.7978 11.8475 54.1388 11.2447 54.5865 10.7349C55.0343 10.2251 55.5854 9.82901 56.2399 9.54656C56.8943 9.25722 57.6452 9.11255 58.4926 9.11255C59.3399 9.11255 60.0943 9.25722 60.7556 9.54656C61.4169 9.82901 61.9715 10.2251 62.4193 10.7349C62.874 11.2447 63.2184 11.8475 63.4526 12.5433C63.6869 13.2322 63.804 13.9865 63.804 14.8063V15.0233C63.804 15.8362 63.6869 16.5905 63.4526 17.2863C63.2184 17.9752 62.874 18.578 62.4193 19.0947C61.9715 19.6044 61.4204 20.0006 60.7659 20.283C60.1115 20.5654 59.3606 20.7067 58.5133 20.7067C57.6659 20.7067 56.9116 20.5654 56.2502 20.283C55.5958 20.0006 55.0412 19.6044 54.5865 19.0947C54.1388 18.578 53.7978 17.9752 53.5635 17.2863C53.3293 16.5905 53.2122 15.8362 53.2122 15.0233ZM56.1882 14.8063V15.0233C56.1882 15.4917 56.2296 15.9292 56.3122 16.3356C56.3949 16.7421 56.5258 17.1003 56.7049 17.4103C56.8909 17.7134 57.132 17.9511 57.4282 18.1233C57.7245 18.2955 58.0861 18.3816 58.5133 18.3816C58.9266 18.3816 59.2814 18.2955 59.5776 18.1233C59.8738 17.9511 60.1115 17.7134 60.2906 17.4103C60.4697 17.1003 60.6006 16.7421 60.6833 16.3356C60.7728 15.9292 60.8176 15.4917 60.8176 15.0233V14.8063C60.8176 14.3516 60.7728 13.9245 60.6833 13.5249C60.6006 13.1185 60.4663 12.7603 60.2803 12.4503C60.1012 12.1334 59.8635 11.8854 59.5673 11.7062C59.271 11.5271 58.9128 11.4376 58.4926 11.4376C58.0724 11.4376 57.7141 11.5271 57.4179 11.7062C57.1286 11.8854 56.8909 12.1334 56.7049 12.4503C56.5258 12.7603 56.3949 13.1185 56.3122 13.5249C56.2296 13.9245 56.1882 14.3516 56.1882 14.8063ZM72.2361 18.0613V4.62784H75.2328V20.5H72.5357L72.2361 18.0613ZM65.168 15.0439V14.8269C65.168 13.9727 65.2644 13.1977 65.4573 12.5019C65.6502 11.7992 65.9327 11.1965 66.3047 10.6936C66.6767 10.1907 67.1348 9.80145 67.679 9.52589C68.2232 9.25033 68.8432 9.11255 69.539 9.11255C70.1935 9.11255 70.7653 9.25033 71.2544 9.52589C71.7504 9.80145 72.1706 10.1941 72.5151 10.7039C72.8664 11.2068 73.1488 11.8027 73.3624 12.4916C73.576 13.1736 73.731 13.921 73.8274 14.7339V15.2093C73.731 15.9877 73.576 16.7111 73.3624 17.3793C73.1488 18.0475 72.8664 18.6331 72.5151 19.136C72.1706 19.632 71.7504 20.0178 71.2544 20.2933C70.7584 20.5689 70.1797 20.7067 69.5184 20.7067C68.8226 20.7067 68.2026 20.5654 67.6583 20.283C67.121 20.0006 66.6663 19.6044 66.2943 19.0947C65.9292 18.5849 65.6502 17.9855 65.4573 17.2966C65.2644 16.6077 65.168 15.8568 65.168 15.0439ZM68.144 14.8269V15.0439C68.144 15.5055 68.1785 15.9361 68.2473 16.3356C68.3231 16.7352 68.4437 17.09 68.609 17.4C68.7812 17.7031 69.0017 17.9408 69.2704 18.113C69.5459 18.2783 69.88 18.361 70.2727 18.361C70.7825 18.361 71.2027 18.2473 71.5334 18.02C71.8641 17.7858 72.1155 17.4654 72.2877 17.059C72.4668 16.6525 72.5702 16.1841 72.5977 15.6536V14.2999C72.5771 13.8659 72.5151 13.4767 72.4117 13.1323C72.3153 12.7809 72.1706 12.4813 71.9777 12.2333C71.7917 11.9852 71.5575 11.7924 71.275 11.6546C70.9995 11.5168 70.6723 11.4479 70.2934 11.4479C69.9076 11.4479 69.5769 11.5375 69.3014 11.7166C69.0258 11.8888 68.8019 12.1265 68.6297 12.4296C68.4644 12.7327 68.3403 13.0909 68.2577 13.5043C68.1819 13.9107 68.144 14.3516 68.144 14.8269ZM87.9739 20.7067C87.1059 20.7067 86.3274 20.5689 85.6385 20.2933C84.9496 20.0109 84.3641 19.6217 83.8818 19.1257C83.4065 18.6296 83.0414 18.0544 82.7865 17.4C82.5316 16.7386 82.4042 16.036 82.4042 15.2919V14.8786C82.4042 14.0313 82.5247 13.2563 82.7658 12.5536C83.0069 11.8509 83.3514 11.2412 83.7992 10.7246C84.2538 10.2079 84.805 9.81178 85.4525 9.53622C86.1001 9.25378 86.8303 9.11255 87.6432 9.11255C88.4354 9.11255 89.1381 9.24344 89.7512 9.50522C90.3643 9.767 90.8776 10.139 91.2909 10.6212C91.7111 11.1035 92.028 11.6821 92.2416 12.3573C92.4551 13.0255 92.5619 13.7695 92.5619 14.5893V15.8293H83.6752V13.8453H89.6376V13.6179C89.6376 13.2046 89.5618 12.836 89.4102 12.5123C89.2656 12.1816 89.0451 11.9198 88.7489 11.7269C88.4527 11.534 88.0738 11.4376 87.6122 11.4376C87.2195 11.4376 86.882 11.5237 86.5995 11.6959C86.3171 11.8681 86.0863 12.1093 85.9072 12.4193C85.735 12.7293 85.6041 13.0944 85.5145 13.5146C85.4319 13.9279 85.3905 14.3826 85.3905 14.8786V15.2919C85.3905 15.7397 85.4525 16.1531 85.5765 16.532C85.7074 16.9109 85.89 17.2381 86.1242 17.5136C86.3653 17.7892 86.6546 18.0028 86.9922 18.1543C87.3366 18.3059 87.7259 18.3816 88.1599 18.3816C88.6972 18.3816 89.1967 18.2783 89.6582 18.0716C90.1267 17.8581 90.5297 17.5377 90.8672 17.1106L92.3139 18.6813C92.0797 19.0189 91.7594 19.3427 91.3529 19.6527C90.9534 19.9627 90.4711 20.2176 89.9062 20.4173C89.3413 20.6102 88.6972 20.7067 87.9739 20.7067ZM96.654 9.31922L98.5036 12.7189L100.405 9.31922H103.577L100.415 14.7856L103.722 20.5H100.539L98.5243 16.904L96.5093 20.5H93.3266L96.6333 14.7856L93.4713 9.31922H96.654ZM108 11.4686V24.7987H105.024V9.31922H107.783L108 11.4686ZM115.078 14.7856V15.0026C115.078 15.8155 114.982 16.5698 114.789 17.2656C114.603 17.9614 114.328 18.5676 113.962 19.0843C113.597 19.5941 113.143 19.9937 112.598 20.283C112.061 20.5654 111.441 20.7067 110.738 20.7067C110.056 20.7067 109.464 20.5689 108.961 20.2933C108.458 20.0178 108.035 19.632 107.69 19.136C107.353 18.6331 107.08 18.051 106.874 17.3896C106.667 16.7283 106.509 16.0187 106.398 15.2609V14.6926C106.509 13.8797 106.667 13.1357 106.874 12.4606C107.08 11.7786 107.353 11.1896 107.69 10.6936C108.035 10.1907 108.455 9.80145 108.951 9.52589C109.454 9.25033 110.043 9.11255 110.718 9.11255C111.427 9.11255 112.051 9.24689 112.588 9.51556C113.132 9.78423 113.587 10.17 113.952 10.6729C114.324 11.1758 114.603 11.7751 114.789 12.4709C114.982 13.1667 115.078 13.9383 115.078 14.7856ZM112.092 15.0026V14.7856C112.092 14.3103 112.051 13.8728 111.968 13.4733C111.892 13.0668 111.768 12.712 111.596 12.4089C111.431 12.1058 111.21 11.8716 110.935 11.7062C110.666 11.534 110.339 11.4479 109.953 11.4479C109.547 11.4479 109.199 11.5134 108.909 11.6442C108.627 11.7751 108.396 11.9646 108.217 12.2126C108.038 12.4606 107.904 12.7568 107.814 13.1013C107.725 13.4457 107.669 13.8349 107.649 14.2689V15.7053C107.683 16.2151 107.78 16.6732 107.938 17.0796C108.097 17.4792 108.341 17.7961 108.672 18.0303C109.002 18.2645 109.436 18.3816 109.974 18.3816C110.366 18.3816 110.697 18.2955 110.966 18.1233C111.234 17.9442 111.451 17.6996 111.617 17.3896C111.789 17.0796 111.91 16.7214 111.978 16.315C112.054 15.9085 112.092 15.4711 112.092 15.0026ZM120.07 4.62784V20.5H117.083V4.62784H120.07ZM122.054 15.0233V14.8063C122.054 13.9865 122.171 13.2322 122.405 12.5433C122.639 11.8475 122.98 11.2447 123.428 10.7349C123.876 10.2251 124.427 9.82901 125.081 9.54656C125.736 9.25722 126.487 9.11255 127.334 9.11255C128.181 9.11255 128.936 9.25722 129.597 9.54656C130.258 9.82901 130.813 10.2251 131.261 10.7349C131.715 11.2447 132.06 11.8475 132.294 12.5433C132.528 13.2322 132.645 13.9865 132.645 14.8063V15.0233C132.645 15.8362 132.528 16.5905 132.294 17.2863C132.06 17.9752 131.715 18.578 131.261 19.0947C130.813 19.6044 130.262 20.0006 129.607 20.283C128.953 20.5654 128.202 20.7067 127.355 20.7067C126.507 20.7067 125.753 20.5654 125.092 20.283C124.437 20.0006 123.883 19.6044 123.428 19.0947C122.98 18.578 122.639 17.9752 122.405 17.2863C122.171 16.5905 122.054 15.8362 122.054 15.0233ZM125.03 14.8063V15.0233C125.03 15.4917 125.071 15.9292 125.154 16.3356C125.236 16.7421 125.367 17.1003 125.546 17.4103C125.732 17.7134 125.973 17.9511 126.27 18.1233C126.566 18.2955 126.927 18.3816 127.355 18.3816C127.768 18.3816 128.123 18.2955 128.419 18.1233C128.715 17.9511 128.953 17.7134 129.132 17.4103C129.311 17.1003 129.442 16.7421 129.525 16.3356C129.614 15.9292 129.659 15.4917 129.659 15.0233V14.8063C129.659 14.3516 129.614 13.9245 129.525 13.5249C129.442 13.1185 129.308 12.7603 129.122 12.4503C128.943 12.1334 128.705 11.8854 128.409 11.7062C128.112 11.5271 127.754 11.4376 127.334 11.4376C126.914 11.4376 126.555 11.5271 126.259 11.7062C125.97 11.8854 125.732 12.1334 125.546 12.4503C125.367 12.7603 125.236 13.1185 125.154 13.5249C125.071 13.9245 125.03 14.3516 125.03 14.8063ZM137.45 11.7579V20.5H134.474V9.31922H137.275L137.45 11.7579ZM140.819 9.24689L140.767 12.0059C140.623 11.9852 140.447 11.968 140.24 11.9542C140.041 11.9336 139.858 11.9232 139.693 11.9232C139.272 11.9232 138.907 11.9784 138.597 12.0886C138.294 12.1919 138.039 12.3469 137.833 12.5536C137.633 12.7603 137.481 13.0117 137.378 13.3079C137.282 13.6042 137.226 13.9417 137.213 14.3206L136.613 14.1346C136.613 13.4113 136.686 12.7465 136.83 12.1403C136.975 11.5271 137.185 10.9932 137.461 10.5386C137.743 10.0839 138.088 9.73256 138.494 9.48456C138.9 9.23656 139.365 9.11255 139.889 9.11255C140.054 9.11255 140.223 9.12633 140.395 9.15389C140.568 9.17455 140.709 9.20555 140.819 9.24689ZM147.164 20.7067C146.296 20.7067 145.517 20.5689 144.828 20.2933C144.14 20.0109 143.554 19.6217 143.072 19.1257C142.596 18.6296 142.231 18.0544 141.976 17.4C141.722 16.7386 141.594 16.036 141.594 15.2919V14.8786C141.594 14.0313 141.715 13.2563 141.956 12.5536C142.197 11.8509 142.541 11.2412 142.989 10.7246C143.444 10.2079 143.995 9.81178 144.642 9.53622C145.29 9.25378 146.02 9.11255 146.833 9.11255C147.625 9.11255 148.328 9.24344 148.941 9.50522C149.554 9.767 150.067 10.139 150.481 10.6212C150.901 11.1035 151.218 11.6821 151.432 12.3573C151.645 13.0255 151.752 13.7695 151.752 14.5893V15.8293H142.865V13.8453H148.827V13.6179C148.827 13.2046 148.752 12.836 148.6 12.5123C148.455 12.1816 148.235 11.9198 147.939 11.7269C147.643 11.534 147.264 11.4376 146.802 11.4376C146.409 11.4376 146.072 11.5237 145.789 11.6959C145.507 11.8681 145.276 12.1093 145.097 12.4193C144.925 12.7293 144.794 13.0944 144.704 13.5146C144.622 13.9279 144.58 14.3826 144.58 14.8786V15.2919C144.58 15.7397 144.642 16.1531 144.766 16.532C144.897 16.9109 145.08 17.2381 145.314 17.5136C145.555 17.7892 145.845 18.0028 146.182 18.1543C146.527 18.3059 146.916 18.3816 147.35 18.3816C147.887 18.3816 148.387 18.2783 148.848 18.0716C149.317 17.8581 149.72 17.5377 150.057 17.1106L151.504 18.6813C151.27 19.0189 150.949 19.3427 150.543 19.6527C150.143 19.9627 149.661 20.2176 149.096 20.4173C148.531 20.6102 147.887 20.7067 147.164 20.7067ZM156.423 11.7579V20.5H153.447V9.31922H156.247L156.423 11.7579ZM159.791 9.24689L159.74 12.0059C159.595 11.9852 159.419 11.968 159.213 11.9542C159.013 11.9336 158.83 11.9232 158.665 11.9232C158.245 11.9232 157.88 11.9784 157.57 12.0886C157.266 12.1919 157.012 12.3469 156.805 12.5536C156.605 12.7603 156.454 13.0117 156.35 13.3079C156.254 13.6042 156.199 13.9417 156.185 14.3206L155.586 14.1346C155.586 13.4113 155.658 12.7465 155.803 12.1403C155.947 11.5271 156.157 10.9932 156.433 10.5386C156.715 10.0839 157.06 9.73256 157.466 9.48456C157.873 9.23656 158.338 9.11255 158.861 9.11255C159.027 9.11255 159.195 9.12633 159.368 9.15389C159.54 9.17455 159.681 9.20555 159.791 9.24689Z" fill="white"/>
</svg>
