<?xml version="1.0" standalone="no"?>
<!DOCTYPE svg PUBLIC "-//W3C//DTD SVG 20010904//EN"
 "http://www.w3.org/TR/2001/REC-SVG-20010904/DTD/svg10.dtd">
<svg version="1.0" xmlns="http://www.w3.org/2000/svg"
 width="500.000000pt" height="500.000000pt" viewBox="0 0 500.000000 500.000000"
 preserveAspectRatio="xMidYMid meet">
<metadata>
Created by potrace 1.15, written by Peter Selinger 2001-2017
</metadata>
<g transform="translate(0.000000,500.000000) scale(0.100000,-0.100000)"
fill="#000000" stroke="none">
<path d="M0 2500 l0 -2500 2500 0 2500 0 0 2500 0 2500 -2500 0 -2500 0 0
-2500z m2640 1908 c48 -33 72 -70 77 -121 7 -57 -25 -129 -68 -154 -26 -15
-27 -19 -12 -25 10 -3 43 -7 73 -7 30 -1 100 -8 155 -16 279 -40 480 -110 663
-232 311 -207 500 -536 557 -970 15 -118 20 -325 9 -407 l-7 -46 -1538 0
-1538 0 -7 46 c-4 26 -4 133 -1 238 4 151 11 217 32 315 104 494 394 828 851
980 145 49 369 90 499 92 33 0 68 4 78 7 16 7 14 10 -12 30 -76 56 -85 174
-19 244 36 38 58 47 119 48 42 0 64 -6 89 -22z m1750 -2213 l0 -85 -1845 0
-1845 0 0 85 0 85 1845 0 1845 0 0 -85z m-1940 -215 c216 -14 464 -70 643
-145 l38 -16 -22 -39 c-39 -69 -78 -108 -137 -137 l-57 -28 -305 -5 c-300 -5
-305 -5 -338 -29 -38 -27 -37 -43 4 -52 16 -4 233 -7 483 -8 l453 -1 97 59
c335 203 626 277 796 202 48 -21 49 -22 29 -40 -43 -41 -960 -695 -979 -698
-11 -2 -382 -32 -825 -68 -443 -36 -820 -66 -837 -68 l-33 -3 0 458 0 458 37
15 c155 65 462 131 666 144 67 5 127 9 132 9 6 1 75 -3 155 -8z m-1080 -690
c0 -455 -3 -582 -12 -585 -22 -9 -830 -195 -845 -195 -11 0 -13 118 -13 680
l0 680 435 0 435 0 0 -580z"/>
<path d="M2255 3995 c-673 -122 -1046 -554 -1082 -1252 l-6 -123 146 0 c168 0
147 -15 167 120 7 41 25 130 41 197 138 570 412 939 779 1049 83 25 63 29 -45
9z"/>
<path d="M610 1200 c0 -443 3 -558 13 -555 15 5 623 145 631 145 3 0 6 218 6
485 l0 485 -325 0 -325 0 0 -560z"/>
</g>
</svg>
