<svg width="250" height="250" viewBox="0 0 250 250" fill="none" xmlns="http://www.w3.org/2000/svg">
<path fill-rule="evenodd" clip-rule="evenodd" d="M125 19.2308C66.5853 19.2308 19.2308 66.5853 19.2308 125C19.2308 183.415 66.5853 230.769 125 230.769C183.415 230.769 230.769 183.415 230.769 125C230.769 66.5853 183.415 19.2308 125 19.2308ZM0 125C0 55.9644 55.9644 0 125 0C194.036 0 250 55.9644 250 125C250 194.036 194.036 250 125 250C55.9644 250 0 194.036 0 125ZM125 48.0769C130.31 48.0769 134.615 52.3819 134.615 57.6923V115.385H192.308C197.618 115.385 201.923 119.69 201.923 125C201.923 130.31 197.618 134.615 192.308 134.615H125C119.69 134.615 115.385 130.31 115.385 125V57.6923C115.385 52.3819 119.69 48.0769 125 48.0769Z" fill="#7C7C8A"/>
</svg>
